<mxfile host="app.diagrams.net" agent="Mozilla/5.0 (Windows NT 10.0; Win64; x64) AppleWebKit/537.36 (KHTML, like Gecko) Chrome/137.0.0.0 Safari/537.36" version="26.2.12">
  <diagram name="PÃ¡gina-1" id="MLhnPg5JZUquEKL-5mDn">
    <mxGraphModel dx="86" dy="548" grid="0" gridSize="10" guides="1" tooltips="1" connect="1" arrows="1" fold="1" page="0" pageScale="1" pageWidth="827" pageHeight="1169" math="0" shadow="0">
      <root>
        <mxCell id="0" />
        <mxCell id="1" parent="0" />
        <mxCell id="HbgEYrR-LauY9sAgD6li-16" style="edgeStyle=none;curved=1;rounded=0;orthogonalLoop=1;jettySize=auto;html=1;exitX=1;exitY=0.3333333333333333;exitDx=0;exitDy=0;exitPerimeter=0;fontSize=12;startSize=8;endSize=8;entryX=0.073;entryY=0.758;entryDx=0;entryDy=0;entryPerimeter=0;" edge="1" parent="1" source="HbgEYrR-LauY9sAgD6li-1" target="HbgEYrR-LauY9sAgD6li-6">
          <mxGeometry relative="1" as="geometry">
            <mxPoint x="634" y="311.3103448275863" as="targetPoint" />
          </mxGeometry>
        </mxCell>
        <mxCell id="HbgEYrR-LauY9sAgD6li-17" style="edgeStyle=none;curved=1;rounded=0;orthogonalLoop=1;jettySize=auto;html=1;fontSize=12;startSize=8;endSize=8;" edge="1" parent="1" source="HbgEYrR-LauY9sAgD6li-1" target="HbgEYrR-LauY9sAgD6li-7">
          <mxGeometry relative="1" as="geometry" />
        </mxCell>
        <mxCell id="HbgEYrR-LauY9sAgD6li-20" style="edgeStyle=none;curved=1;rounded=0;orthogonalLoop=1;jettySize=auto;html=1;exitX=0.5;exitY=0;exitDx=0;exitDy=0;exitPerimeter=0;entryX=0;entryY=1;entryDx=0;entryDy=0;fontSize=12;startSize=8;endSize=8;" edge="1" parent="1" source="HbgEYrR-LauY9sAgD6li-1" target="HbgEYrR-LauY9sAgD6li-5">
          <mxGeometry relative="1" as="geometry" />
        </mxCell>
        <mxCell id="HbgEYrR-LauY9sAgD6li-21" style="edgeStyle=none;curved=1;rounded=0;orthogonalLoop=1;jettySize=auto;html=1;fontSize=12;startSize=8;endSize=8;" edge="1" parent="1" source="HbgEYrR-LauY9sAgD6li-1" target="HbgEYrR-LauY9sAgD6li-9">
          <mxGeometry relative="1" as="geometry" />
        </mxCell>
        <mxCell id="HbgEYrR-LauY9sAgD6li-1" value="usuario" style="shape=umlActor;verticalLabelPosition=bottom;verticalAlign=top;html=1;outlineConnect=0;" vertex="1" parent="1">
          <mxGeometry x="477" y="319" width="30" height="60" as="geometry" />
        </mxCell>
        <mxCell id="HbgEYrR-LauY9sAgD6li-5" value="Cadastrar Usuario" style="ellipse;whiteSpace=wrap;html=1;" vertex="1" parent="1">
          <mxGeometry x="484" y="140" width="120" height="80" as="geometry" />
        </mxCell>
        <mxCell id="HbgEYrR-LauY9sAgD6li-6" value="Cadastrar Livro" style="ellipse;whiteSpace=wrap;html=1;" vertex="1" parent="1">
          <mxGeometry x="782" y="156" width="120" height="80" as="geometry" />
        </mxCell>
        <mxCell id="HbgEYrR-LauY9sAgD6li-7" value="Visualizar Livros" style="ellipse;whiteSpace=wrap;html=1;" vertex="1" parent="1">
          <mxGeometry x="785" y="309" width="120" height="80" as="geometry" />
        </mxCell>
        <mxCell id="HbgEYrR-LauY9sAgD6li-33" style="edgeStyle=none;curved=1;rounded=0;orthogonalLoop=1;jettySize=auto;html=1;exitX=0;exitY=0.5;exitDx=0;exitDy=0;fontSize=12;startSize=8;endSize=8;" edge="1" parent="1" source="HbgEYrR-LauY9sAgD6li-8" target="HbgEYrR-LauY9sAgD6li-1">
          <mxGeometry relative="1" as="geometry">
            <mxPoint x="488" y="476" as="targetPoint" />
          </mxGeometry>
        </mxCell>
        <mxCell id="HbgEYrR-LauY9sAgD6li-8" value="Editar Livros" style="ellipse;whiteSpace=wrap;html=1;" vertex="1" parent="1">
          <mxGeometry x="658" y="581" width="120" height="80" as="geometry" />
        </mxCell>
        <mxCell id="HbgEYrR-LauY9sAgD6li-9" value="Excluir&lt;div&gt;&amp;nbsp;Livros&lt;/div&gt;" style="ellipse;whiteSpace=wrap;html=1;" vertex="1" parent="1">
          <mxGeometry x="607" y="430" width="120" height="80" as="geometry" />
        </mxCell>
        <mxCell id="HbgEYrR-LauY9sAgD6li-11" style="edgeStyle=none;curved=1;rounded=0;orthogonalLoop=1;jettySize=auto;html=1;exitX=0;exitY=0.5;exitDx=0;exitDy=0;fontSize=12;startSize=8;endSize=8;" edge="1" parent="1" source="HbgEYrR-LauY9sAgD6li-6" target="HbgEYrR-LauY9sAgD6li-6">
          <mxGeometry relative="1" as="geometry" />
        </mxCell>
        <mxCell id="HbgEYrR-LauY9sAgD6li-24" value="" style="endArrow=none;dashed=1;html=1;dashPattern=1 3;strokeWidth=2;rounded=0;fontSize=12;startSize=8;endSize=8;curved=1;entryX=0.113;entryY=0.791;entryDx=0;entryDy=0;entryPerimeter=0;" edge="1" parent="1" source="HbgEYrR-LauY9sAgD6li-9" target="HbgEYrR-LauY9sAgD6li-7">
          <mxGeometry width="50" height="50" relative="1" as="geometry">
            <mxPoint x="606" y="515" as="sourcePoint" />
            <mxPoint x="656" y="465" as="targetPoint" />
          </mxGeometry>
        </mxCell>
        <mxCell id="HbgEYrR-LauY9sAgD6li-25" value="&amp;lt;&amp;lt; INCLUDES &amp;gt;&amp;gt;" style="edgeLabel;html=1;align=center;verticalAlign=middle;resizable=0;points=[];fontSize=12;" vertex="1" connectable="0" parent="HbgEYrR-LauY9sAgD6li-24">
          <mxGeometry x="0.1303" y="-1" relative="1" as="geometry">
            <mxPoint as="offset" />
          </mxGeometry>
        </mxCell>
        <mxCell id="HbgEYrR-LauY9sAgD6li-26" value="" style="endArrow=none;dashed=1;html=1;dashPattern=1 3;strokeWidth=2;rounded=0;fontSize=12;startSize=8;endSize=8;curved=1;exitX=0.655;exitY=0.059;exitDx=0;exitDy=0;exitPerimeter=0;" edge="1" parent="1" source="HbgEYrR-LauY9sAgD6li-8" target="HbgEYrR-LauY9sAgD6li-7">
          <mxGeometry width="50" height="50" relative="1" as="geometry">
            <mxPoint x="727" y="530" as="sourcePoint" />
            <mxPoint x="777" y="480" as="targetPoint" />
          </mxGeometry>
        </mxCell>
        <mxCell id="HbgEYrR-LauY9sAgD6li-27" value="&amp;lt;&amp;lt; INCLUDES &amp;gt;&amp;gt;" style="edgeLabel;html=1;align=center;verticalAlign=middle;resizable=0;points=[];fontSize=12;" vertex="1" connectable="0" parent="HbgEYrR-LauY9sAgD6li-26">
          <mxGeometry x="-0.008" y="3" relative="1" as="geometry">
            <mxPoint as="offset" />
          </mxGeometry>
        </mxCell>
        <mxCell id="HbgEYrR-LauY9sAgD6li-28" value="" style="endArrow=none;dashed=1;html=1;dashPattern=1 3;strokeWidth=2;rounded=0;fontSize=12;startSize=8;endSize=8;curved=1;entryX=0.5;entryY=1;entryDx=0;entryDy=0;exitX=0.5;exitY=0;exitDx=0;exitDy=0;" edge="1" parent="1" source="HbgEYrR-LauY9sAgD6li-7" target="HbgEYrR-LauY9sAgD6li-6">
          <mxGeometry width="50" height="50" relative="1" as="geometry">
            <mxPoint x="747" y="339" as="sourcePoint" />
            <mxPoint x="797" y="289" as="targetPoint" />
          </mxGeometry>
        </mxCell>
        <mxCell id="HbgEYrR-LauY9sAgD6li-29" value="&amp;lt;&amp;lt; INCLUDES &amp;gt;&amp;gt;" style="edgeLabel;html=1;align=center;verticalAlign=middle;resizable=0;points=[];fontSize=12;" vertex="1" connectable="0" parent="HbgEYrR-LauY9sAgD6li-28">
          <mxGeometry x="-0.0198" y="-1" relative="1" as="geometry">
            <mxPoint as="offset" />
          </mxGeometry>
        </mxCell>
        <mxCell id="HbgEYrR-LauY9sAgD6li-31" value="" style="endArrow=none;dashed=1;html=1;dashPattern=1 3;strokeWidth=2;rounded=0;fontSize=12;startSize=8;endSize=8;curved=1;entryX=0;entryY=0.425;entryDx=0;entryDy=0;entryPerimeter=0;exitX=1;exitY=0.5;exitDx=0;exitDy=0;" edge="1" parent="1" source="HbgEYrR-LauY9sAgD6li-5" target="HbgEYrR-LauY9sAgD6li-6">
          <mxGeometry width="50" height="50" relative="1" as="geometry">
            <mxPoint x="655" y="414" as="sourcePoint" />
            <mxPoint x="705" y="364" as="targetPoint" />
          </mxGeometry>
        </mxCell>
        <mxCell id="HbgEYrR-LauY9sAgD6li-32" value="&amp;lt;&amp;lt; INCLUDES &amp;gt;&amp;gt;" style="edgeLabel;html=1;align=center;verticalAlign=middle;resizable=0;points=[];fontSize=12;" vertex="1" connectable="0" parent="HbgEYrR-LauY9sAgD6li-31">
          <mxGeometry x="0.1107" y="-1" relative="1" as="geometry">
            <mxPoint as="offset" />
          </mxGeometry>
        </mxCell>
      </root>
    </mxGraphModel>
  </diagram>
</mxfile>
